<svg xmlns="http://www.w3.org/2000/svg" version="1.1" xmlns:xlink="http://www.w3.org/1999/xlink" xmlns:svgjs="http://svgjs.dev/svgjs" width="2000" height="1247" viewBox="0 0 2000 1247"><g transform="matrix(1,0,0,1,-1.2121212121212466,0.504858299595071)"><svg viewBox="0 0 396 247" data-background-color="#110f10" preserveAspectRatio="xMidYMid meet" height="1247" width="2000" xmlns="http://www.w3.org/2000/svg" xmlns:xlink="http://www.w3.org/1999/xlink"><g id="tight-bounds" transform="matrix(1,0,0,1,0.2400000000000091,-0.09999999999999432)"><svg viewBox="0 0 395.52 247.2" height="247.2" width="395.52"><g><svg></svg></g><g><svg viewBox="0 0 395.52 247.2" height="247.2" width="395.52"><g transform="matrix(1,0,0,1,75.54432000000001,89.96947256518172)"><svg viewBox="0 0 244.43135999999996 67.26105486963655" height="67.26105486963655" width="244.43135999999996"><g><svg viewBox="0 0 244.43135999999996 67.26105486963655" height="67.26105486963655" width="244.43135999999996"><g><svg viewBox="0 0 244.43135999999996 67.26105486963655" height="67.26105486963655" width="244.43135999999996"><g><svg viewBox="0 0 244.43135999999996 67.26105486963655" height="67.26105486963655" width="244.43135999999996"><g id="textblocktransform"><svg viewBox="0 0 244.43135999999996 67.26105486963655" height="67.26105486963655" width="244.43135999999996" id="textblock"><g><svg viewBox="0 0 244.43135999999996 45.02346348508633" height="45.02346348508633" width="244.43135999999996"><g transform="matrix(1,0,0,1,0,0)"><svg width="244.43135999999996" viewBox="1.3 -34.85 191.07999999999998 35.2" height="45.02346348508633" data-palette-color="#cef196"><path d="M14.9 0.35Q7.55 0.35 4.42-4.03 1.3-8.4 1.3-16.7L1.3-16.7Q1.3-25 4.48-29.4 7.65-33.8 14.95-33.8L14.95-33.8Q17.45-33.8 19.88-33.1 22.3-32.4 23.9-30.9 25.5-29.4 25.5-27.2L25.5-27.2Q25.5-25.45 24.63-24.35 23.75-23.25 22.55-23.25L22.55-23.25Q21.55-23.25 20.75-23.8 19.95-24.35 19.65-25.2L19.65-25.2Q20.6-26.6 20.6-27.7L20.6-27.7Q20.6-29.35 19.03-30.23 17.45-31.1 15-31.1L15-31.1Q9.9-31.1 8.13-27.3 6.35-23.5 6.35-16.7L6.35-16.7Q6.35-9.95 8.1-6.13 9.85-2.3 14.9-2.3L14.9-2.3Q16.95-2.3 18.65-2.93 20.35-3.55 21.05-4.15L21.05-4.15 21.05-12.9Q19-13.75 15.95-13.95L15.95-13.95 16.15-15.8 25.5-16.25 25.5-2.1Q23.45-0.95 20.55-0.3 17.65 0.35 14.9 0.35L14.9 0.35ZM28.45-1.85Q29.6-2 30.3-2.25 31-2.5 31.75-3.1L31.75-3.1 31.75-28.35Q31.75-30.2 30.97-30.88 30.2-31.55 28.25-31.65L28.25-31.65 28.4-33.15Q30.35-33.45 32.47-34.08 34.6-34.7 35.05-34.85L35.05-34.85 36-34.35 36-20.4Q37.25-21.95 38.92-22.88 40.6-23.8 42.45-23.8L42.45-23.8Q46.1-23.8 48.12-21.98 50.15-20.15 50.15-16.9L50.15-16.9 50.15-3.1Q50.6-2.7 51.6-2.3 52.6-1.9 53.65-1.7L53.65-1.7 53.45 0 42.45 0 42.6-1.7Q44.5-2 45.9-3.1L45.9-3.1 45.9-16.45Q45.9-21.4 41.65-21.4L41.65-21.4Q39.9-21.4 38.35-20.23 36.8-19.05 36-17.2L36-17.2 36-3.1Q37.25-2.15 39.5-1.75L39.5-1.75 39.3 0 28.25 0 28.45-1.85ZM66.65 0.35Q61.4 0.35 58.72-2.75 56.05-5.85 56.05-11.75L56.05-11.75Q56.05-17.65 58.72-20.73 61.4-23.8 66.65-23.8L66.65-23.8Q71.9-23.8 74.57-20.73 77.25-17.65 77.25-11.75L77.25-11.75Q77.25-5.85 74.57-2.75 71.9 0.35 66.65 0.35L66.65 0.35ZM66.65-1.95Q69.9-1.95 71.37-4.25 72.85-6.55 72.85-11.75L72.85-11.75Q72.85-16.95 71.4-19.23 69.95-21.5 66.65-21.5L66.65-21.5Q63.4-21.5 61.97-19.23 60.55-16.95 60.55-11.75L60.55-11.75Q60.55-6.55 61.97-4.25 63.4-1.95 66.65-1.95L66.65-1.95ZM87.79 0.3Q86.04 0.3 83.77-0.28 81.49-0.85 80.34-1.6L80.34-1.6 80.34-7.75 82.99-8.1Q83.19-6 83.47-4.78 83.74-3.55 84.34-2.45L84.34-2.45Q85.94-1.95 88.19-1.95L88.19-1.95Q90.24-1.95 91.54-3.05 92.84-4.15 92.84-5.8L92.84-5.8Q92.84-7.45 91.57-8.28 90.29-9.1 87.54-10.05L87.54-10.05Q85.24-10.85 83.82-11.6 82.39-12.35 81.39-13.75 80.39-15.15 80.39-17.35L80.39-17.35Q80.39-20.35 82.62-22.05 84.84-23.75 88.74-23.75L88.74-23.75Q90.84-23.75 92.62-23.1 94.39-22.45 95.44-21.33 96.49-20.2 96.49-18.85L96.49-18.85Q96.49-16.25 94.19-16.25L94.19-16.25Q93.24-16.25 92.62-16.57 91.99-16.9 91.49-17.6L91.49-17.6Q92.34-18.2 92.34-19.4L92.34-19.4Q92.34-20.45 91.22-21.1 90.09-21.75 88.44-21.75L88.44-21.75Q86.44-21.75 85.29-20.85 84.14-19.95 84.14-18.4L84.14-18.4Q84.14-17.15 84.92-16.32 85.69-15.5 86.79-15 87.89-14.5 89.94-13.8L89.94-13.8Q92.09-13 93.47-12.25 94.84-11.5 95.79-10.18 96.74-8.85 96.74-6.8L96.74-6.8Q96.74-3.45 94.39-1.58 92.04 0.3 87.79 0.3L87.79 0.3ZM105.44-1.85Q108.39-2.2 109.99-3.2L109.99-3.2 109.99-31.1Q106.14-31.05 103.44-30.75L103.44-30.75Q102.54-29.5 102.07-27.88 101.59-26.25 101.54-24.95L101.54-24.95Q101.19-24.9 100.49-24.9L100.49-24.9Q99.69-24.9 99.34-24.95L99.34-24.95 99.34-33.55Q106.24-33.35 112.14-33.35L112.14-33.35Q116.09-33.35 119.77-33.43 123.44-33.5 124.99-33.55L124.99-33.55 124.99-24.95Q124.64-24.9 123.94-24.9L123.94-24.9Q123.19-24.9 122.79-24.95L122.79-24.95Q122.44-28.55 120.99-30.7L120.99-30.7Q117.74-31.05 114.39-31.1L114.39-31.1 114.39-3.2Q116.14-2.25 119.29-1.85L119.29-1.85 119.04 0 105.14 0 105.44-1.85ZM134.44 0.35Q128.84 0.35 126.41-2.73 123.99-5.8 123.99-11.9L123.99-11.9Q123.99-17.45 126.66-20.63 129.34-23.8 134.44-23.8L134.44-23.8Q139.39-23.8 141.39-21.2 143.39-18.6 143.54-13.5L143.54-13.5 142.49-12.15 128.59-12.15 128.59-11.9Q128.59-8.65 128.99-6.6 129.39-4.55 130.74-3.33 132.09-2.1 134.74-2.1L134.74-2.1Q136.74-2.1 138.39-2.85 140.04-3.6 141.14-4.45L141.14-4.45 142.39-2.95Q141.14-1.8 139.14-0.73 137.14 0.35 134.44 0.35L134.44 0.35ZM139.04-14.35Q139.04-18.3 138.01-20.05 136.99-21.8 134.24-21.8L134.24-21.8Q131.39-21.8 130.04-19.73 128.69-17.65 128.59-14L128.59-14 139.04-14.35ZM156.59 0.35Q150.94 0.35 148.49-2.73 146.04-5.8 146.04-11.9L146.04-11.9Q146.14-17.8 148.84-20.8 151.54-23.8 156.79-23.8L156.79-23.8Q160.24-23.8 162.36-22.33 164.49-20.85 164.49-18.5L164.49-18.5Q164.49-17.35 163.71-16.45 162.94-15.55 161.84-15.55L161.84-15.55Q160.89-15.55 160.19-16.05 159.49-16.55 159.24-17.35L159.24-17.35Q159.89-18.4 159.89-19.15L159.89-19.15Q159.89-20.45 159.04-21.23 158.19-22 156.79-22L156.79-22Q153.24-22 151.96-19.3 150.69-16.6 150.69-11.9L150.69-11.9Q150.69-8.65 151.11-6.6 151.54-4.55 152.86-3.33 154.19-2.1 156.84-2.1L156.84-2.1Q158.69-2.1 160.36-2.78 162.04-3.45 163.19-4.45L163.19-4.45 164.49-2.95Q163.09-1.55 161.01-0.6 158.94 0.35 156.59 0.35L156.59 0.35ZM167.18-1.85Q168.33-2 169.03-2.25 169.73-2.5 170.48-3.1L170.48-3.1 170.48-28.35Q170.48-30.2 169.71-30.88 168.93-31.55 166.98-31.65L166.98-31.65 167.13-33.15Q169.08-33.45 171.21-34.08 173.33-34.7 173.78-34.85L173.78-34.85 174.73-34.35 174.73-20.4Q175.98-21.95 177.66-22.88 179.33-23.8 181.18-23.8L181.18-23.8Q184.83-23.8 186.86-21.98 188.88-20.15 188.88-16.9L188.88-16.9 188.88-3.1Q189.33-2.7 190.33-2.3 191.33-1.9 192.38-1.7L192.38-1.7 192.18 0 181.18 0 181.33-1.7Q183.23-2 184.63-3.1L184.63-3.1 184.63-16.45Q184.63-21.4 180.38-21.4L180.38-21.4Q178.63-21.4 177.08-20.23 175.53-19.05 174.73-17.2L174.73-17.2 174.73-3.1Q175.98-2.15 178.23-1.75L178.23-1.75 178.03 0 166.98 0 167.18-1.85Z" opacity="1" transform="matrix(1,0,0,1,0,0)" fill="#ffffff" class="wordmark-text-0" data-fill-palette-color="primary" id="text-0"></path></svg></g></svg></g><g transform="matrix(1,0,0,1,0,55.65242265079157)"><svg viewBox="0 0 244.43135999999996 11.608632218844983" height="11.608632218844983" width="244.43135999999996"><g transform="matrix(1,0,0,1,0,0)"><svg width="244.43135999999996" viewBox="2.65 -36.75 789.5400000000001 37.5" height="11.608632218844983" data-palette-color="#cef196"><path d="M25.75 0L4.45 0Q3.5 0 3.08-0.43 2.65-0.85 2.65-1.8L2.65-1.8 2.65-7.75Q2.65-8.7 3.08-9.13 3.5-9.55 4.45-9.55L4.45-9.55 9.4-9.55 9.4-26.35 4.45-26.35Q3.5-26.35 3.08-26.78 2.65-27.2 2.65-28.15L2.65-28.15 2.65-34.2Q2.65-35.15 3.08-35.58 3.5-36 4.45-36L4.45-36 25.75-36Q26.7-36 27.13-35.58 27.55-35.15 27.55-34.2L27.55-34.2 27.55-28.15Q27.55-27.2 27.13-26.78 26.7-26.35 25.75-26.35L25.75-26.35 20.9-26.35 20.9-9.55 25.75-9.55Q26.7-9.55 27.13-9.13 27.55-8.7 27.55-7.75L27.55-7.75 27.55-1.8Q27.55-0.85 27.13-0.43 26.7 0 25.75 0L25.75 0ZM43 0L43 0 35.5 0Q34.55 0 34.12-0.43 33.7-0.85 33.7-1.8L33.7-1.8 33.7-34.2Q33.7-35.15 34.12-35.58 34.55-36 35.5-36L35.5-36 40.7-36Q41.65-36 42.32-35.7 43-35.4 43.65-34.65L43.65-34.65 53.35-23.55 53.35-34.2Q53.35-35.15 53.77-35.58 54.2-36 55.15-36L55.15-36 62.65-36Q63.6-36 64.02-35.58 64.45-35.15 64.45-34.2L64.45-34.2 64.45-1.8Q64.45-0.85 64.02-0.43 63.6 0 62.65 0L62.65 0 55.15 0Q54.2 0 53.77-0.43 53.35-0.85 53.35-1.8L53.35-1.8 53.35-7.95 44.8-18.3 44.8-1.8Q44.8-0.85 44.37-0.43 43.95 0 43 0ZM80.64 0L80.64 0 73.14 0Q72.19 0 71.77-0.43 71.34-0.85 71.34-1.8L71.34-1.8 71.34-34.2Q71.34-35.15 71.77-35.58 72.19-36 73.14-36L73.14-36 78.34-36Q79.3-36 79.97-35.7 80.64-35.4 81.3-34.65L81.3-34.65 91-23.55 91-34.2Q91-35.15 91.42-35.58 91.84-36 92.8-36L92.8-36 100.29-36Q101.25-36 101.67-35.58 102.09-35.15 102.09-34.2L102.09-34.2 102.09-1.8Q102.09-0.85 101.67-0.43 101.25 0 100.29 0L100.29 0 92.8 0Q91.84 0 91.42-0.43 91-0.85 91-1.8L91-1.8 91-7.95 82.44-18.3 82.44-1.8Q82.44-0.85 82.02-0.43 81.59 0 80.64 0ZM139.49-26.5L139.49-9.45Q139.49-7.15 138.82-5.28 138.14-3.4 136.42-2.08 134.69-0.75 131.67 0 128.64 0.75 123.99 0.75L123.99 0.75Q119.34 0.75 116.29 0 113.24-0.75 111.52-2.08 109.79-3.4 109.12-5.28 108.44-7.15 108.44-9.45L108.44-9.45 108.44-26.5Q108.44-28.8 109.12-30.68 109.79-32.55 111.52-33.9 113.24-35.25 116.29-36 119.34-36.75 123.99-36.75L123.99-36.75Q128.64-36.75 131.67-36 134.69-35.25 136.42-33.9 138.14-32.55 138.82-30.68 139.49-28.8 139.49-26.5L139.49-26.5ZM119.79-24.7L119.79-11.25Q119.79-10.25 120.54-9.58 121.29-8.9 123.99-8.9L123.99-8.9Q126.69-8.9 127.44-9.58 128.19-10.25 128.19-11.25L128.19-11.25 128.19-24.7Q128.19-25.65 127.44-26.33 126.69-27 123.99-27L123.99-27Q121.29-27 120.54-26.33 119.79-25.65 119.79-24.7L119.79-24.7ZM167.14 0L167.14 0 154.14 0Q153.19 0 152.56-0.35 151.94-0.7 151.59-1.65L151.59-1.65 146.69-13.9Q146.24-15 145.94-15.83 145.64-16.65 145.44-17.4 145.24-18.15 145.16-18.98 145.09-19.8 145.09-21L145.09-21 145.09-34.2Q145.09-35.15 145.51-35.58 145.94-36 146.89-36L146.89-36 154.84-36Q155.79-36 156.29-35.58 156.79-35.15 156.79-34.2L156.79-34.2 156.79-20.4Q156.79-19.9 156.89-19.4 156.99-18.9 157.19-18.35L157.19-18.35 159.54-11.35Q159.69-10.85 159.89-10.68 160.09-10.5 160.49-10.5L160.49-10.5 161.04-10.5Q161.44-10.5 161.64-10.68 161.84-10.85 161.99-11.35L161.99-11.35 164.34-18.4Q164.54-18.95 164.64-19.45 164.74-19.95 164.74-20.45L164.74-20.45 164.74-34.2Q164.74-35.15 165.16-35.58 165.59-36 166.54-36L166.54-36 174.39-36Q175.34-36 175.76-35.58 176.19-35.15 176.19-34.2L176.19-34.2 176.19-21Q176.19-19.8 176.11-18.98 176.04-18.15 175.84-17.4 175.64-16.65 175.34-15.83 175.04-15 174.59-13.9L174.59-13.9 169.69-1.65Q169.34-0.7 168.71-0.35 168.09 0 167.14 0ZM194.89-25.5L194.89-25.5 192.54-17.9 200.39-17.9 198.04-25.5Q197.84-25.95 197.61-26.15 197.39-26.35 197.09-26.35L197.09-26.35 195.84-26.35Q195.54-26.35 195.31-26.15 195.09-25.95 194.89-25.5ZM192.04-8.8L192.04-1.8Q192.04-0.85 191.61-0.43 191.19 0 190.24 0L190.24 0 182.89 0Q181.94 0 181.51-0.43 181.09-0.85 181.09-1.8L181.09-1.8 181.09-15Q181.09-16.5 181.56-18.45 182.04-20.4 183.04-23L183.04-23 187.39-34.35Q187.69-35.2 188.31-35.6 188.94-36 189.94-36L189.94-36 203.39-36Q204.34-36 204.96-35.6 205.59-35.2 205.89-34.35L205.89-34.35 210.24-23Q211.24-20.4 211.71-18.45 212.19-16.5 212.19-15L212.19-15 212.19-1.8Q212.19-0.85 211.76-0.43 211.34 0 210.39 0L210.39 0 202.84 0Q201.84 0 201.36-0.43 200.89-0.85 200.89-1.8L200.89-1.8 200.89-8.8 192.04-8.8ZM233.33 0L233.33 0 225.23 0Q224.28 0 223.86-0.43 223.44-0.85 223.44-1.8L223.44-1.8 223.44-26.35 216.08-26.35Q215.13-26.35 214.71-26.78 214.28-27.2 214.28-28.15L214.28-28.15 214.28-34.2Q214.28-35.15 214.71-35.58 215.13-36 216.08-36L216.08-36 242.48-36Q243.44-36 243.86-35.58 244.28-35.15 244.28-34.2L244.28-34.2 244.28-28.15Q244.28-27.2 243.86-26.78 243.44-26.35 242.48-26.35L242.48-26.35 235.13-26.35 235.13-1.8Q235.13-0.85 234.71-0.43 234.28 0 233.33 0ZM271.43 0L250.13 0Q249.18 0 248.76-0.43 248.33-0.85 248.33-1.8L248.33-1.8 248.33-7.75Q248.33-8.7 248.76-9.13 249.18-9.55 250.13-9.55L250.13-9.55 255.08-9.55 255.08-26.35 250.13-26.35Q249.18-26.35 248.76-26.78 248.33-27.2 248.33-28.15L248.33-28.15 248.33-34.2Q248.33-35.15 248.76-35.58 249.18-36 250.13-36L250.13-36 271.43-36Q272.38-36 272.81-35.58 273.23-35.15 273.23-34.2L273.23-34.2 273.23-28.15Q273.23-27.2 272.81-26.78 272.38-26.35 271.43-26.35L271.43-26.35 266.58-26.35 266.58-9.55 271.43-9.55Q272.38-9.55 272.81-9.13 273.23-8.7 273.23-7.75L273.23-7.75 273.23-1.8Q273.23-0.85 272.81-0.43 272.38 0 271.43 0L271.43 0ZM309.88-26.5L309.88-9.45Q309.88-7.15 309.2-5.28 308.53-3.4 306.81-2.08 305.08-0.75 302.06 0 299.03 0.75 294.38 0.75L294.38 0.75Q289.73 0.75 286.68 0 283.63-0.75 281.91-2.08 280.18-3.4 279.5-5.28 278.83-7.15 278.83-9.45L278.83-9.45 278.83-26.5Q278.83-28.8 279.5-30.68 280.18-32.55 281.91-33.9 283.63-35.25 286.68-36 289.73-36.75 294.38-36.75L294.38-36.75Q299.03-36.75 302.06-36 305.08-35.25 306.81-33.9 308.53-32.55 309.2-30.68 309.88-28.8 309.88-26.5L309.88-26.5ZM290.18-24.7L290.18-11.25Q290.18-10.25 290.93-9.58 291.68-8.9 294.38-8.9L294.38-8.9Q297.08-8.9 297.83-9.58 298.58-10.25 298.58-11.25L298.58-11.25 298.58-24.7Q298.58-25.65 297.83-26.33 297.08-27 294.38-27L294.38-27Q291.68-27 290.93-26.33 290.18-25.65 290.18-24.7L290.18-24.7ZM325.53 0L325.53 0 318.03 0Q317.08 0 316.65-0.43 316.23-0.85 316.23-1.8L316.23-1.8 316.23-34.2Q316.23-35.15 316.65-35.58 317.08-36 318.03-36L318.03-36 323.23-36Q324.18-36 324.85-35.7 325.53-35.4 326.18-34.65L326.18-34.65 335.88-23.55 335.88-34.2Q335.88-35.15 336.3-35.58 336.73-36 337.68-36L337.68-36 345.18-36Q346.13-36 346.55-35.58 346.98-35.15 346.98-34.2L346.98-34.2 346.98-1.8Q346.98-0.85 346.55-0.43 346.13 0 345.18 0L345.18 0 337.68 0Q336.73 0 336.3-0.43 335.88-0.85 335.88-1.8L335.88-1.8 335.88-7.95 327.33-18.3 327.33-1.8Q327.33-0.85 326.9-0.43 326.48 0 325.53 0ZM374.42 0L374.42 0 366.92 0Q365.97 0 365.55-0.43 365.12-0.85 365.12-1.8L365.12-1.8 365.12-34.2Q365.12-35.15 365.55-35.58 365.97-36 366.92-36L366.92-36 372.12-36Q373.07-36 373.75-35.7 374.42-35.4 375.07-34.65L375.07-34.65 384.77-23.55 384.77-34.2Q384.77-35.15 385.2-35.58 385.62-36 386.57-36L386.57-36 394.07-36Q395.02-36 395.45-35.58 395.87-35.15 395.87-34.2L395.87-34.2 395.87-1.8Q395.87-0.85 395.45-0.43 395.02 0 394.07 0L394.07 0 386.57 0Q385.62 0 385.2-0.43 384.77-0.85 384.77-1.8L384.77-1.8 384.77-7.95 376.22-18.3 376.22-1.8Q376.22-0.85 375.8-0.43 375.37 0 374.42 0ZM433.27-26.5L433.27-9.45Q433.27-7.15 432.59-5.28 431.92-3.4 430.19-2.08 428.47-0.75 425.44 0 422.42 0.75 417.77 0.75L417.77 0.75Q413.12 0.75 410.07 0 407.02-0.75 405.3-2.08 403.57-3.4 402.89-5.28 402.22-7.15 402.22-9.45L402.22-9.45 402.22-26.5Q402.22-28.8 402.89-30.68 403.57-32.55 405.3-33.9 407.02-35.25 410.07-36 413.12-36.75 417.77-36.75L417.77-36.75Q422.42-36.75 425.44-36 428.47-35.25 430.19-33.9 431.92-32.55 432.59-30.68 433.27-28.8 433.27-26.5L433.27-26.5ZM413.57-24.7L413.57-11.25Q413.57-10.25 414.32-9.58 415.07-8.9 417.77-8.9L417.77-8.9Q420.47-8.9 421.22-9.58 421.97-10.25 421.97-11.25L421.97-11.25 421.97-24.7Q421.97-25.65 421.22-26.33 420.47-27 417.77-27L417.77-27Q415.07-27 414.32-26.33 413.57-25.65 413.57-24.7L413.57-24.7ZM473.17 0L451.87 0Q450.92 0 450.49-0.43 450.06-0.85 450.06-1.8L450.06-1.8 450.06-7.75Q450.06-8.7 450.49-9.13 450.92-9.55 451.87-9.55L451.87-9.55 456.81-9.55 456.81-26.35 451.87-26.35Q450.92-26.35 450.49-26.78 450.06-27.2 450.06-28.15L450.06-28.15 450.06-34.2Q450.06-35.15 450.49-35.58 450.92-36 451.87-36L451.87-36 473.17-36Q474.12-36 474.54-35.58 474.97-35.15 474.97-34.2L474.97-34.2 474.97-28.15Q474.97-27.2 474.54-26.78 474.12-26.35 473.17-26.35L473.17-26.35 468.31-26.35 468.31-9.55 473.17-9.55Q474.12-9.55 474.54-9.13 474.97-8.7 474.97-7.75L474.97-7.75 474.97-1.8Q474.97-0.85 474.54-0.43 474.12 0 473.17 0L473.17 0ZM490.36 0L490.36 0 482.91 0Q481.96 0 481.54-0.43 481.11-0.85 481.11-1.8L481.11-1.8 481.11-34.2Q481.11-35.15 481.54-35.58 481.96-36 482.91-36L482.91-36 490.96-36Q491.76-36 492.29-35.65 492.81-35.3 493.26-34.5L493.26-34.5 497.76-26.35Q498.01-25.9 498.19-25.7 498.36-25.5 498.66-25.5L498.66-25.5 499.11-25.5Q499.41-25.5 499.59-25.7 499.76-25.9 500.01-26.35L500.01-26.35 504.46-34.5Q504.91-35.3 505.44-35.65 505.96-36 506.76-36L506.76-36 514.86-36Q515.81-36 516.24-35.58 516.66-35.15 516.66-34.2L516.66-34.2 516.66-1.8Q516.66-0.85 516.24-0.43 515.81 0 514.86 0L514.86 0 507.16 0Q506.21 0 505.79-0.43 505.36-0.85 505.36-1.8L505.36-1.8 505.36-19.4 502.41-13.95Q501.96-13.1 501.34-12.73 500.71-12.35 499.76-12.35L499.76-12.35 497.76-12.35Q496.81-12.35 496.19-12.73 495.56-13.1 495.11-13.95L495.11-13.95 492.16-19.4 492.16-1.8Q492.16-0.85 491.74-0.43 491.31 0 490.36 0ZM532.81 0L532.81 0 525.36 0Q524.41 0 523.99-0.43 523.56-0.85 523.56-1.8L523.56-1.8 523.56-34.2Q523.56-35.15 523.99-35.58 524.41-36 525.36-36L525.36-36 533.41-36Q534.21-36 534.74-35.65 535.26-35.3 535.71-34.5L535.71-34.5 540.21-26.35Q540.46-25.9 540.63-25.7 540.81-25.5 541.11-25.5L541.11-25.5 541.56-25.5Q541.86-25.5 542.03-25.7 542.21-25.9 542.46-26.35L542.46-26.35 546.91-34.5Q547.36-35.3 547.88-35.65 548.41-36 549.21-36L549.21-36 557.31-36Q558.26-36 558.69-35.58 559.11-35.15 559.11-34.2L559.11-34.2 559.11-1.8Q559.11-0.85 558.69-0.43 558.26 0 557.31 0L557.31 0 549.61 0Q548.66 0 548.24-0.43 547.81-0.85 547.81-1.8L547.81-1.8 547.81-19.4 544.86-13.95Q544.41-13.1 543.78-12.73 543.16-12.35 542.21-12.35L542.21-12.35 540.21-12.35Q539.26-12.35 538.63-12.73 538.01-13.1 537.56-13.95L537.56-13.95 534.61-19.4 534.61-1.8Q534.61-0.85 534.19-0.43 533.76 0 532.81 0ZM588.31 0L567.01 0Q566.06 0 565.63-0.43 565.21-0.85 565.21-1.8L565.21-1.8 565.21-7.75Q565.21-8.7 565.63-9.13 566.06-9.55 567.01-9.55L567.01-9.55 571.96-9.55 571.96-26.35 567.01-26.35Q566.06-26.35 565.63-26.78 565.21-27.2 565.21-28.15L565.21-28.15 565.21-34.2Q565.21-35.15 565.63-35.58 566.06-36 567.01-36L567.01-36 588.31-36Q589.26-36 589.68-35.58 590.11-35.15 590.11-34.2L590.11-34.2 590.11-28.15Q590.11-27.2 589.68-26.78 589.26-26.35 588.31-26.35L588.31-26.35 583.46-26.35 583.46-9.55 588.31-9.55Q589.26-9.55 589.68-9.13 590.11-8.7 590.11-7.75L590.11-7.75 590.11-1.8Q590.11-0.85 589.68-0.43 589.26 0 588.31 0L588.31 0ZM613.25 0L613.25 0 605.15 0Q604.2 0 603.78-0.43 603.35-0.85 603.35-1.8L603.35-1.8 603.35-26.35 596-26.35Q595.05-26.35 594.63-26.78 594.2-27.2 594.2-28.15L594.2-28.15 594.2-34.2Q594.2-35.15 594.63-35.58 595.05-36 596-36L596-36 622.4-36Q623.35-36 623.78-35.58 624.2-35.15 624.2-34.2L624.2-34.2 624.2-28.15Q624.2-27.2 623.78-26.78 623.35-26.35 622.4-26.35L622.4-26.35 615.05-26.35 615.05-1.8Q615.05-0.85 614.63-0.43 614.2 0 613.25 0ZM640.1-25.5L640.1-25.5 637.75-17.9 645.6-17.9 643.25-25.5Q643.05-25.95 642.83-26.15 642.6-26.35 642.3-26.35L642.3-26.35 641.05-26.35Q640.75-26.35 640.53-26.15 640.3-25.95 640.1-25.5ZM637.25-8.8L637.25-1.8Q637.25-0.85 636.83-0.43 636.4 0 635.45 0L635.45 0 628.1 0Q627.15 0 626.73-0.43 626.3-0.85 626.3-1.8L626.3-1.8 626.3-15Q626.3-16.5 626.78-18.45 627.25-20.4 628.25-23L628.25-23 632.6-34.35Q632.9-35.2 633.53-35.6 634.15-36 635.15-36L635.15-36 648.6-36Q649.55-36 650.18-35.6 650.8-35.2 651.1-34.35L651.1-34.35 655.45-23Q656.45-20.4 656.93-18.45 657.4-16.5 657.4-15L657.4-15 657.4-1.8Q657.4-0.85 656.98-0.43 656.55 0 655.6 0L655.6 0 648.05 0Q647.05 0 646.58-0.43 646.1-0.85 646.1-1.8L646.1-1.8 646.1-8.8 637.25-8.8ZM678.55 0L678.55 0 670.45 0Q669.5 0 669.07-0.43 668.65-0.85 668.65-1.8L668.65-1.8 668.65-26.35 661.3-26.35Q660.35-26.35 659.92-26.78 659.5-27.2 659.5-28.15L659.5-28.15 659.5-34.2Q659.5-35.15 659.92-35.58 660.35-36 661.3-36L661.3-36 687.7-36Q688.65-36 689.07-35.58 689.5-35.15 689.5-34.2L689.5-34.2 689.5-28.15Q689.5-27.2 689.07-26.78 688.65-26.35 687.7-26.35L687.7-26.35 680.35-26.35 680.35-1.8Q680.35-0.85 679.92-0.43 679.5 0 678.55 0ZM716.65 0L695.35 0Q694.4 0 693.97-0.43 693.55-0.85 693.55-1.8L693.55-1.8 693.55-7.75Q693.55-8.7 693.97-9.13 694.4-9.55 695.35-9.55L695.35-9.55 700.3-9.55 700.3-26.35 695.35-26.35Q694.4-26.35 693.97-26.78 693.55-27.2 693.55-28.15L693.55-28.15 693.55-34.2Q693.55-35.15 693.97-35.58 694.4-36 695.35-36L695.35-36 716.65-36Q717.6-36 718.02-35.58 718.45-35.15 718.45-34.2L718.45-34.2 718.45-28.15Q718.45-27.2 718.02-26.78 717.6-26.35 716.65-26.35L716.65-26.35 711.8-26.35 711.8-9.55 716.65-9.55Q717.6-9.55 718.02-9.13 718.45-8.7 718.45-7.75L718.45-7.75 718.45-1.8Q718.45-0.85 718.02-0.43 717.6 0 716.65 0L716.65 0ZM755.09-26.5L755.09-9.45Q755.09-7.15 754.42-5.28 753.74-3.4 752.02-2.08 750.29-0.75 747.27 0 744.24 0.75 739.59 0.75L739.59 0.75Q734.94 0.75 731.89 0 728.84-0.75 727.12-2.08 725.39-3.4 724.72-5.28 724.04-7.15 724.04-9.45L724.04-9.45 724.04-26.5Q724.04-28.8 724.72-30.68 725.39-32.55 727.12-33.9 728.84-35.25 731.89-36 734.94-36.75 739.59-36.75L739.59-36.75Q744.24-36.75 747.27-36 750.29-35.25 752.02-33.9 753.74-32.55 754.42-30.68 755.09-28.8 755.09-26.5L755.09-26.5ZM735.39-24.7L735.39-11.25Q735.39-10.25 736.14-9.58 736.89-8.9 739.59-8.9L739.59-8.9Q742.29-8.9 743.04-9.58 743.79-10.25 743.79-11.25L743.79-11.25 743.79-24.7Q743.79-25.65 743.04-26.33 742.29-27 739.59-27L739.59-27Q736.89-27 736.14-26.33 735.39-25.65 735.39-24.7L735.39-24.7ZM770.74 0L770.74 0 763.24 0Q762.29 0 761.87-0.43 761.44-0.85 761.44-1.8L761.44-1.8 761.44-34.2Q761.44-35.15 761.87-35.58 762.29-36 763.24-36L763.24-36 768.44-36Q769.39-36 770.07-35.7 770.74-35.4 771.39-34.65L771.39-34.65 781.09-23.55 781.09-34.2Q781.09-35.15 781.52-35.58 781.94-36 782.89-36L782.89-36 790.39-36Q791.34-36 791.77-35.58 792.19-35.15 792.19-34.2L792.19-34.2 792.19-1.8Q792.19-0.85 791.77-0.43 791.34 0 790.39 0L790.39 0 782.89 0Q781.94 0 781.52-0.43 781.09-0.85 781.09-1.8L781.09-1.8 781.09-7.95 772.54-18.3 772.54-1.8Q772.54-0.85 772.12-0.43 771.69 0 770.74 0Z" opacity="1" transform="matrix(1,0,0,1,0,0)" fill="#ffffff" class="slogan-text-1" data-fill-palette-color="secondary" id="text-1"></path></svg></g></svg></g></svg></g></svg></g></svg></g></svg></g></svg></g><path d="M189.326 83.969L189.326 22.546 391.434 22.546 391.434 224.654 189.326 224.654 189.326 163.231 193.386 163.231 193.386 220.594 387.374 220.594 387.374 26.606 193.386 26.606 193.386 83.969Z" fill="#ffffff" stroke="transparent" data-fill-palette-color="tertiary"></path></svg></g><defs></defs></svg><rect width="395.52" height="247.2" fill="none" stroke="none" visibility="hidden"></rect></g></svg></g></svg>